<?xml version="1.0" encoding="UTF-8" standalone="no"?>
<!-- Created with matplotlib (http://matplotlib.org/) -->

<svg
   xmlns:dc="http://purl.org/dc/elements/1.1/"
   xmlns:cc="http://creativecommons.org/ns#"
   xmlns:rdf="http://www.w3.org/1999/02/22-rdf-syntax-ns#"
   xmlns:svg="http://www.w3.org/2000/svg"
   xmlns="http://www.w3.org/2000/svg"
   xmlns:sodipodi="http://sodipodi.sourceforge.net/DTD/sodipodi-0.dtd"
   xmlns:inkscape="http://www.inkscape.org/namespaces/inkscape"
   height="288pt"
   version="1.1"
   viewBox="0 0 432 288"
   width="432pt"
   id="svg2"
   inkscape:version="0.91 r13725"
   sodipodi:docname="fig17_1.svg"
   inkscape:export-filename="D:\Dropbox\lio-project\timewalk\fig17\fig17_1.png"
   inkscape:export-xdpi="200"
   inkscape:export-ydpi="200">
  <metadata
     id="metadata92">
    <rdf:RDF>
      <cc:Work
         rdf:about="">
        <dc:format>image/svg+xml</dc:format>
        <dc:type
           rdf:resource="http://purl.org/dc/dcmitype/StillImage" />
      </cc:Work>
    </rdf:RDF>
  </metadata>
  <sodipodi:namedview
     pagecolor="#ffffff"
     bordercolor="#666666"
     borderopacity="1"
     objecttolerance="10"
     gridtolerance="10"
     guidetolerance="10"
     inkscape:pageopacity="0"
     inkscape:pageshadow="2"
     inkscape:window-width="1920"
     inkscape:window-height="1138"
     id="namedview90"
     showgrid="true"
     inkscape:zoom="2.6972222"
     inkscape:cx="207.7137"
     inkscape:cy="180"
     inkscape:window-x="-8"
     inkscape:window-y="-8"
     inkscape:window-maximized="1"
     inkscape:current-layer="legend_1"
     showguides="false"
     inkscape:guide-bbox="true">
    <sodipodi:guide
       orientation="1,0"
       position="139.78022,273.62637"
       id="guide3115" />
    <sodipodi:guide
       orientation="1,0"
       position="147.69231,274.28571"
       id="guide3117" />
    <sodipodi:guide
       orientation="0,1"
       position="106.15385,131.86813"
       id="guide3119" />
    <sodipodi:guide
       orientation="0,1"
       position="102.85714,116.7033"
       id="guide3121" />
    <inkscape:grid
       type="xygrid"
       id="grid3408" />
  </sodipodi:namedview>
  <defs
     id="defs4">
    <style
       type="text/css"
       id="style6">
*{stroke-linecap:butt;stroke-linejoin:round;}
  </style>
  </defs>
  <g
     id="figure_1">
    <g
       id="patch_1">
      <path
         d=" M0 288 L432 288 L432 0 L0 0 z "
         style="fill:none;"
         id="path10" />
    </g>
    <g
       style="stroke-linecap:butt;stroke-linejoin:round"
       id="line2d_1">
      <path
         inkscape:connector-curvature="0"
         id="path14"
         style="fill:none;stroke:#0000ff;stroke-linecap:square;stroke-linejoin:round"
         d="m 54,49.0909 2.79,0 2.79,0 2.79,0 2.79,0 2.79,0 2.79,0 2.79,0 2.79,0 2.79,0 2.79,0 2.79,0 2.79,0 2.79,0 2.79,0 2.79,0 2.79,0 2.79,0 2.79,0 2.79,0 2.79,0 2.79,27.0058 2.79,23.7444 2.79,20.7889 2.79,18.113 2.79,15.691 2.79,13.505 2.79,11.529 2.79,9.75 2.79,8.146 2.79,6.706 2.79,5.412 2.79,4.252 2.79,3.216 2.79,2.29 2.79,1.466 2.79,0.733 2.79,0.085 2.79,-0.487 2.79,-0.992 2.79,-1.432 2.79,-1.818 2.79,-2.151 2.79,-2.439 2.79,-2.684 2.79,-2.892 2.79,-3.067 2.79,-3.21 2.79,-3.327 2.79,-3.418 2.79,-3.489 2.79,-3.538 2.79,-3.572 2.79,-3.589 2.79,-3.592 2.79,-3.584 2.79,-3.564 2.79,-3.536 2.79,-3.499 2.79,-3.455 2.79,-3.406 2.79,-3.35 2.79,-3.29 2.79,-3.227 2.79,-3.16 2.79,-3.092 2.79,-3.02 2.79,-2.948 2.79,-2.874 2.79,-2.8 2.79,-2.726 2.79,-2.65 2.79,-2.576 2.79,-2.501 2.79,-2.428 2.79,-2.355 2.79,-2.282 2.79,-2.212 2.79,-2.142 2.79,-2.072 2.79,-2.006 2.79,-1.9393 2.79,-1.8748 2.79,-1.8117 2.79,-1.75 2.79,-1.69 2.79,-1.6315 2.79,-1.5744 2.79,-1.519 2.79,-1.4652 2.79,-1.4128 2.79,-1.362 2.79,-1.3128 2.79,-1.265 2.79,-1.2188 2.79,-1.1739 2.79,-1.1306 2.79,-1.0885 2.79,-1.048 2.79,-1.0088 2.79,-0.9708 2.79,-0.9342 2.79,-0.8988 2.79,-0.8647 2.79,-0.8317 2.79,-0.7999 2.79,-0.7692 2.79,-0.7397 2.79,-0.7111 2.79,-0.6836 2.79,-0.6572 2.79,-0.6316 2.79,-0.6071 2.79,-0.5833 2.79,-0.5606 2.79,-0.5386 2.79,-0.5175 2.79,-0.4972 2.79,-0.4776 2.79,-0.4588"
         clip-path="url(#p124b8dd147)" />
    </g>
    <g
       style="stroke-linecap:butt;stroke-linejoin:round"
       id="line2d_2"
       transform="matrix(0.89297308,0,0,1.1975517,15.325451,-9.12756)">
      <path
         inkscape:connector-curvature="0"
         id="path17"
         style="fill:none;stroke:#008000;stroke-linecap:square;stroke-linejoin:round"
         d="m 54,49.0909 2.79,0 2.79,0 2.79,0 2.79,0 2.79,0 2.79,0 2.79,0 2.79,0 2.79,0 2.79,0 2.79,0 2.79,0 2.79,0 2.79,0 2.79,0 2.79,0 2.79,0 2.79,0 2.79,0 2.79,0 2.79,6.9797 2.79,6.3176 2.79,5.703 2.79,5.1327 2.79,4.604 2.79,4.1141 2.79,3.6605 2.79,3.2408 2.79,2.8529 2.79,2.4947 2.79,2.164 2.79,1.8593 2.79,1.5788 2.79,1.321 2.79,1.083 2.79,0.866 2.79,0.667 2.79,0.485 2.79,0.318 2.79,0.166 2.79,0.028 2.79,-0.097 2.79,-0.21 2.79,-0.314 2.79,-0.405 2.79,-0.488 2.79,-0.563 2.79,-0.628 2.79,-0.687 2.79,-0.738 2.79,-0.7842 2.79,-0.8229 2.79,-0.8568 2.79,-0.8855 2.79,-0.9097 2.79,-0.9296 2.79,-0.9456 2.79,-0.9581 2.79,-0.9673 2.79,-0.9735 2.79,-0.977 2.79,-0.978 2.79,-0.9767 2.79,-0.9734 2.79,-0.9683 2.79,-0.9616 2.79,-0.9532 2.79,-0.9437 2.79,-0.9328 2.79,-0.921 2.79,-0.9081 2.79,-0.8946 2.79,-0.8802 2.79,-0.8653 2.79,-0.8499 2.79,-0.8339 2.79,-0.8177 2.79,-0.8011 2.79,-0.7843 2.79,-0.7673 2.79,-0.7503 2.79,-0.7331 2.79,-0.7159 2.79,-0.6987 2.79,-0.6816 2.79,-0.6645 2.79,-0.6476 2.79,-0.6309 2.79,-0.6142 2.79,-0.5977 2.79,-0.5816 2.79,-0.5655 2.79,-0.5498 2.79,-0.5342 2.79,-0.5189 2.79,-0.504 2.79,-0.4892 2.79,-0.4748 2.79,-0.4607 2.79,-0.4468 2.79,-0.4333 2.79,-0.42 2.79,-0.407 2.79,-0.3944 2.79,-0.3821 2.79,-0.37 2.79,-0.3583 2.79,-0.3468 2.79,-0.3357 2.79,-0.3248 2.79,-0.3142 2.79,-0.304 2.79,-0.2939 2.79,-0.2843 2.79,-0.2748 2.79,-0.2656 2.79,-0.2567 2.79,-0.248 2.79,-0.2397"
         clip-path="url(#p124b8dd147)"
         transform="matrix(0.93648389,0,0,1.0004219,3.4415916,-0.03245419)" />
    </g>
    <g
       style="stroke-linecap:butt;stroke-linejoin:round"
       id="line2d_3">
      <path
         inkscape:connector-curvature="0"
         id="path20"
         style="fill:none;stroke:#ff0000;stroke-linecap:square;stroke-linejoin:round"
         d="m 54,69.3818 2.79,0 2.79,0 2.79,0 2.79,0 2.79,0 2.79,0 2.79,0 2.79,0 2.79,0 2.79,0 2.79,0 2.79,0 2.79,0 2.79,0 2.79,0 2.79,0 2.79,0 2.79,0 2.79,0 2.79,0 2.79,0 2.79,0 2.79,0 2.79,0 2.79,0 2.79,0 2.79,0 2.79,0 2.79,0 2.79,0 2.79,0 2.79,0 2.79,0 2.79,0 2.79,0 2.79,0 2.79,0 2.79,0 2.79,0 2.79,0 2.79,0 2.79,0 2.79,0 2.79,0 2.79,0 2.79,0 2.79,0 2.79,0 2.79,0 2.79,0 2.79,0 2.79,0 2.79,0 2.79,0 2.79,0 2.79,0 2.79,0 2.79,0 2.79,0 2.79,0 2.79,0 2.79,0 2.79,0 2.79,0 2.79,0 2.79,0 2.79,0 2.79,0 2.79,0 2.79,0 2.79,0 2.79,0 2.79,0 2.79,0 2.79,0 2.79,0 2.79,0 2.79,0 2.79,0 2.79,0 2.79,0 2.79,0 2.79,0 2.79,0 2.79,0 2.79,0 2.79,0 2.79,0 2.79,0 2.79,0 2.79,0 2.79,0 2.79,0 2.79,0 2.79,0 2.79,0 2.79,0 2.79,0 2.79,0 2.79,0 2.79,0 2.79,0 2.79,0 2.79,0 2.79,0 2.79,0 2.79,0 2.79,0 2.79,0 2.79,0 2.79,0 2.79,0 2.79,0 2.79,0 2.79,0 2.79,0 2.79,0 2.79,0 2.79,0"
         clip-path="url(#p124b8dd147)" />
    </g>
    <g
       style="stroke-linecap:butt;stroke-linejoin:round"
       id="legend_1"
       transform="translate(-3.6610169,79.322034)">
      <g
         style="stroke-linecap:butt;stroke-linejoin:round"
         id="patch_2"
         transform="translate(3.5271669,-1.4172768)">
        <path
           inkscape:connector-curvature="0"
           id="path24"
           style="fill:#ffffff;stroke:#000000;stroke-linecap:butt;stroke-linejoin:round"
           d="m 291.741,76.4 91.059,0 0,-41.6 -91.059,0 0,41.6 z" />
      </g>
      <g
         style="stroke-linecap:butt;stroke-linejoin:round"
         id="line2d_4">
        <path
           inkscape:connector-curvature="0"
           id="path27"
           style="fill:none;stroke:#0000ff;stroke-linecap:square;stroke-linejoin:round"
           d="m 300.141,45.4 16.8,0" />
      </g>
      <g
         style="stroke-linecap:butt;stroke-linejoin:round"
         id="line2d_5" />
      <g
         style="stroke-linecap:butt;stroke-linejoin:round"
         id="line2d_6">
        <path
           inkscape:connector-curvature="0"
           id="path60"
           style="fill:none;stroke:#008000;stroke-linecap:square;stroke-linejoin:round"
           d="m 300.141,64.4 16.8,0" />
      </g>
      <g
         style="stroke-linecap:butt;stroke-linejoin:round"
         id="line2d_7" />
      <text
         xml:space="preserve"
         style="font-style:normal;font-variant:normal;font-weight:normal;font-stretch:normal;font-size:9.60000038px;line-height:125%;font-family:Algerian;-inkscape-font-specification:Algerian;letter-spacing:0px;word-spacing:0px;fill:#000000;fill-opacity:1;stroke:none;stroke-width:1px;stroke-linecap:butt;stroke-linejoin:miter;stroke-opacity:1"
         x="324.60303"
         y="49.014141"
         id="text3450"
         sodipodi:linespacing="125%"><tspan
           sodipodi:role="line"
           id="tspan3452"
           style="font-style:normal;font-variant:normal;font-weight:normal;font-stretch:normal;font-family:sans-serif;-inkscape-font-specification:sans-serif;stroke-linecap:butt;stroke-linejoin:round"
           x="324.60303"
           y="49.014141">signaal A</tspan><tspan
           sodipodi:role="line"
           style="stroke-linecap:butt;stroke-linejoin:round"
           x="324.60303"
           y="61.014141"
           id="tspan3454" /></text>
      <text
         xml:space="preserve"
         style="font-style:normal;font-variant:normal;font-weight:normal;font-stretch:normal;font-size:9.60000038px;line-height:125%;font-family:Algerian;-inkscape-font-specification:Algerian;letter-spacing:0px;word-spacing:0px;fill:#000000;fill-opacity:1;stroke:none;stroke-width:1px;stroke-linecap:butt;stroke-linejoin:miter;stroke-opacity:1"
         x="324.53528"
         y="67.568657"
         id="text3450-5"
         sodipodi:linespacing="125%"><tspan
           sodipodi:role="line"
           id="tspan3452-3"
           style="font-style:normal;font-variant:normal;font-weight:normal;font-stretch:normal;font-family:sans-serif;-inkscape-font-specification:sans-serif;stroke-linecap:butt;stroke-linejoin:round"
           x="324.53528"
           y="67.568657">signaal B</tspan><tspan
           sodipodi:role="line"
           style="stroke-linecap:butt;stroke-linejoin:round"
           x="324.53528"
           y="79.568657"
           id="tspan3454-8" /></text>
    </g>
    <path
       style="fill:none;stroke:#000000;stroke-width:1px;stroke-linecap:butt;stroke-linejoin:miter;stroke-opacity:1"
       d="m 139.78022,243.2967 0,-156.92307"
       id="path3123"
       inkscape:connector-curvature="0"
       transform="scale(0.8,0.8)" />
    <path
       style="fill:none;stroke:#000000;stroke-width:0.80000001px;stroke-linecap:butt;stroke-linejoin:miter;stroke-opacity:1"
       d="m 116.04396,194.63736 0,-126.065928"
       id="path3125"
       inkscape:connector-curvature="0" />
    <path
       style="fill:none;stroke:#000000;stroke-width:1px;stroke-linecap:butt;stroke-linejoin:miter;stroke-opacity:1"
       d="m 115.38462,228.13187 c 42.1978,0 42.1978,0 42.1978,0"
       id="path3127"
       inkscape:connector-curvature="0"
       transform="scale(0.8,0.8)" />
    <path
       style="fill:none;stroke:#000000;stroke-width:0.80000001px;stroke-linecap:butt;stroke-linejoin:miter;stroke-opacity:1"
       d="m 106.17071,186.27501 3.54358,-3.76951 -3.31752,-5.04666"
       id="path3129"
       inkscape:connector-curvature="0" />
    <path
       style="fill:none;stroke:#000000;stroke-width:0.80000001px;stroke-linecap:butt;stroke-linejoin:miter;stroke-opacity:1"
       d="m 121.24111,186.50106 -4.1422,-3.99556 4.1422,-5.04666"
       id="path3131"
       inkscape:connector-curvature="0" />
    <flowRoot
       xml:space="preserve"
       id="flowRoot3141"
       style="font-style:normal;font-weight:normal;font-size:12px;line-height:125%;font-family:Sans;letter-spacing:0px;word-spacing:0px;fill:#000000;fill-opacity:1;stroke:none;stroke-linecap:butt;stroke-linejoin:round"
       transform="matrix(1.5297493,0,0,1.7187737,-37.479504,-249.71502)"><flowRegion
         id="flowRegion3143"
         style="stroke-linecap:butt;stroke-linejoin:round"><rect
           id="rect3145"
           width="54.818466"
           height="35.038609"
           x="58.774441"
           y="186.50238"
           style="stroke-linecap:butt;stroke-linejoin:round" /></flowRegion><flowPara
         id="flowPara3147"
         style="font-size:7.40051174px;stroke-linecap:butt;stroke-linejoin:round">drempel</flowPara></flowRoot>    <path
       style="color:#000000;display:inline;overflow:visible;visibility:visible;opacity:1;fill:none;fill-opacity:1;fill-rule:nonzero;stroke:#ff0000;stroke-width:1.1888;stroke-linecap:butt;stroke-linejoin:miter;stroke-miterlimit:4;stroke-dasharray:4.7552,4.7552;stroke-dashoffset:0;stroke-opacity:1;marker:none;enable-background:accumulate"
       d="m 155.90551,32.88189 0,212.59842"
       id="path3410"
       inkscape:connector-curvature="0" />
    <flowRoot
       xml:space="preserve"
       id="flowRoot3141-3"
       style="font-style:normal;font-weight:normal;font-size:12px;line-height:125%;font-family:Sans;letter-spacing:0px;word-spacing:0px;fill:#000000;fill-opacity:1;stroke:none;stroke-linecap:butt;stroke-linejoin:round"
       transform="matrix(1.5297493,0,0,1.7187737,-43.740645,-160.57217)"><flowRegion
         id="flowRegion3143-9"
         style="stroke-linecap:butt;stroke-linejoin:round"><rect
           id="rect3145-9"
           width="54.818466"
           height="35.038609"
           x="58.774441"
           y="186.50238"
           style="stroke-linecap:butt;stroke-linejoin:round" /></flowRegion><flowPara
         id="flowPara3147-0"
         style="stroke-linecap:butt;stroke-linejoin:round">t<flowSpan
   style="font-size:65.00091553%;baseline-shift:sub;stroke-linecap:butt;stroke-linejoin:round"
   id="flowSpan3149-3">B </flowSpan>- t<flowSpan
   style="font-size:65.00091553%;baseline-shift:sub;stroke-linecap:butt;stroke-linejoin:round"
   id="flowSpan3151-6">A</flowSpan></flowPara></flowRoot>  </g>
  <defs
     id="defs85">
    <clipPath
       id="p124b8dd147">
      <rect
         height="223.2"
         width="334.8"
         x="54.0"
         y="28.8"
         id="rect88" />
    </clipPath>
  </defs>
</svg>
